<?xml version="1.0" standalone="no"?>
<!DOCTYPE svg PUBLIC "-//W3C//DTD SVG 20010904//EN"
 "http://www.w3.org/TR/2001/REC-SVG-20010904/DTD/svg10.dtd">
<svg version="1.0" xmlns="http://www.w3.org/2000/svg"
 width="376pt" height="323pt" viewBox="617 524 376 323"
 preserveAspectRatio="xMidYMid meet">

<g transform="translate(0.000000,1600.000000) scale(0.100000,-0.100000)"
stroke="none">
<path fill="#F59E0B" d="M9675 10518 c-27 -23 -126 -117 -220 -208 -93 -92 -195 -190 -225
-218 l-55 -51 -5 -1041 c-3 -573 -2 -1044 2 -1046 7 -5 158 138 370 350 66 65
132 128 149 140 l29 21 3 1048 c1 576 2 1047 2 1047 0 -1 -22 -19 -50 -42z"/>
<path fill="#00236F" d="M7190 8815 l0 -1085 363 2 362 3 3 730 2 730 -357 352 c-197 194
-361 352 -365 353 -5 0 -8 -488 -8 -1085z"/>
<path fill="#1E3A8A" d="M8532 9542 l-352 -347 0 -732 0 -733 355 0 c275 0 357 3 360 13 10
27 10 2147 0 2147 -5 -1 -169 -157 -363 -348z"/>
<path fill="#151C27" d="M6642 9454 l-272 -266 0 -729 0 -729 280 0 280 0 0 995 c0 547 -4
995 -8 995 -5 0 -131 -120 -280 -266z"/>
</g>
</svg>
